:SAMPLES-PER-SECOND 30
:FULLY-SPECIFIED
:DEGREES
1
root  12.3207 39.9523 -1.8159 -27.2595 -87.9579 23.6645
RightUpLeg  1.15128 -7.21989 -4.39171
RightLeg  5.3435 10.0155 -0.42586
RightFoot  -4.85135 -0.193709 2.92535
RightToes  5.23868e-010 0 -3.6325e-017
Spine  4.63891 -0.368871 -0.101994
Spine1  -0.142442 -0.341218 -0.277258
HEad  -4.32938 0.445399 -0.773639
LeftShoulder1  0.122941 2.12023 -0.184032
LeftArm  -19.8103 -0.567207 -10.5303
LeftForeArm  2.96949 1.83801 1.05291
LeftHand  -0.0541577 3.42522 2.54225
RightShoulder  0.0722506 -2.37343 -1.54546
RightArm  -3.85325 -0.580841 8.10894
RightForeArm  -0.689025 -0.0624266 -0.805552
RightHand  -0.226734 6.20944 -2.71965
LeftUpLeg  -1.2691 6.62707 3.65879
LeftLeg  4.31168 -7.01582 0.187887
LeftFoot  -0.386114 0.0453867 -0.39147
LeftToes  -4.9204e-010 1.02043e-011 -1.81609e-011
2
root  12.3233 39.9493 -1.82682 -27.6735 -87.9473 24.0535
RightUpLeg  1.12277 -7.19106 -4.38506
RightLeg  5.45474 9.98397 -0.421765
RightFoot  -4.90777 -0.191605 2.8927
RightToes  5.23868e-010 0 -3.6325e-017
Spine  4.69216 -0.378218 -0.126733
Spine1  -0.183491 -0.340287 -0.320016
HEad  -4.34037 0.574773 -0.617669
LeftShoulder1  0.122941 2.11406 -0.177646
LeftArm  -19.8308 -0.529932 -10.4455
LeftForeArm  3.02032 1.94657 1.09265
LeftHand  -0.0519231 3.1308 2.51643
RightShoulder  0.0722423 -2.41148 -1.52267
RightArm  -3.76356 -0.544699 8.08989
RightForeArm  -0.910089 -0.00711643 -0.757249
RightHand  -0.227786 6.26507 -2.733
LeftUpLeg  -1.27138 6.64219 3.66322
LeftLeg  4.36508 -7.02541 0.170102
LeftFoot  -0.3974 0.0422057 -0.342035
LeftToes  -4.9204e-010 1.02043e-011 -1.81609e-011
3
root  12.3224 39.947 -1.83789 -27.5626 -87.9423 23.9144
RightUpLeg  1.10075 -7.15874 -4.36198
RightLeg  5.56493 9.93116 -0.412692
RightFoot  -4.95758 -0.194474 2.93722
RightToes  5.23868e-010 0 -3.6325e-017
Spine  4.67167 -0.383358 -0.165025
Spine1  -0.126114 -0.354355 -0.273789
HEad  -4.48181 0.586159 -0.691101
LeftShoulder1  0.11994 2.0948 -0.15156
LeftArm  -19.8425 -0.375731 -10.4001
LeftForeArm  3.56621 1.86721 1.13414
LeftHand  -0.0536738 2.54434 1.74241
RightShoulder  0.0722344 -2.43899 -1.48854
RightArm  -3.81801 -0.383945 8.0333
RightForeArm  -0.664381 -0.133381 -0.77875
RightHand  -0.224696 6.09303 -2.66461
LeftUpLeg  -1.25489 6.64292 3.68163
LeftLeg  4.38714 -7.03179 0.18316
LeftFoot  -0.418396 0.0458503 -0.398674
LeftToes  -4.9204e-010 1.02043e-011 -1.81609e-011
4
root  12.3258 39.9441 -1.84917 -26.9576 -87.9021 23.2746
RightUpLeg  1.13185 -7.14436 -4.34414
RightLeg  5.5846 9.87822 -0.408641
RightFoot  -4.99354 -0.191614 2.89284
RightToes  5.23868e-010 0 -3.6325e-017
Spine  4.6626 -0.42397 -0.228869
Spine1  -0.0343324 -0.420179 -0.160252
HEad  -4.58424 0.849586 -0.762868
LeftShoulder1  0.110762 2.21781 -0.184831
LeftArm  -19.7649 -0.372358 -10.4046
LeftForeArm  3.47107 1.83084 1.08226
LeftHand  -0.0547433 2.57006 1.72789
RightShoulder  0.0722685 -2.36623 -1.69871
RightArm  -3.83149 -0.439361 8.12889
RightForeArm  -0.417294 -0.0366081 -0.792541
RightHand  -0.228185 6.0469 -2.62833
LeftUpLeg  -1.27129 6.65025 3.70464
LeftLeg  4.46423 -7.09637 0.175302
LeftFoot  -0.444265 0.047907 -0.430637
LeftToes  -4.9204e-010 1.02043e-011 -1.81609e-011
5
root  12.3285 39.9391 -1.8649 -24.5543 -87.8373 20.8591
RightUpLeg  1.1119 -7.08453 -4.2499
RightLeg  5.67489 9.7193 -0.411343
RightFoot  -5.03577 -0.187098 2.82276
RightToes  5.23868e-010 0 -3.6325e-017
Spine  4.7578 -0.484997 -0.151243
Spine1  -0.142996 -0.473788 -0.191141
HEad  -4.70537 0.980649 -0.671239
LeftShoulder1  0.111045 2.21626 -0.116687
LeftArm  -19.8721 -0.239077 -10.4084
LeftForeArm  3.89409 1.83463 1.1881
LeftHand  -0.0554132 1.73002 1.44712
RightShoulder  0.072284 -2.351 -1.8097
RightArm  -4.01941 -0.554129 8.2517
RightForeArm  -0.369875 0.0816843 -0.864127
RightHand  -0.235955 6.06194 -2.72061
LeftUpLeg  -1.32311 6.64737 3.76596
LeftLeg  4.55797 -7.21114 0.196766
LeftFoot  -0.504646 0.0478284 -0.429416
LeftToes  -4.9204e-010 1.02043e-011 -1.81609e-011
6
root  12.3237 39.9335 -1.87166 -24.099 -87.7905 20.3275
RightUpLeg  1.1444 -7.03554 -4.24061
RightLeg  5.83709 9.64038 -0.398373
RightFoot  -5.19205 -0.19129 2.90407
RightToes  5.23868e-010 0 -3.6325e-017
Spine  4.81302 -0.529536 0.00788839
Spine1  -0.0654983 -0.477125 -0.40989
HEad  -4.73227 0.799276 -0.612004
LeftShoulder1  0.114672 2.21254 -0.170816
LeftArm  -19.906 -0.205552 -10.3384
LeftForeArm  3.95367 1.73016 1.19211
LeftHand  -0.0566313 1.78879 1.54672
RightShoulder  0.0722814 -2.34813 -1.78457
RightArm  -4.2158 -0.708473 8.28794
RightForeArm  -0.27184 0.356447 -0.936169
RightHand  -0.234179 5.86306 -2.73936
LeftUpLeg  -1.31019 6.59995 3.75333
LeftLeg  4.69811 -7.21542 0.24276
LeftFoot  -0.606742 0.0523979 -0.500431
LeftToes  -4.9204e-010 1.02043e-011 -1.81609e-011
7
root  12.3255 39.9222 -1.88621 -23.5361 -87.7399 19.6778
RightUpLeg  1.1406 -6.91419 -4.19011
RightLeg  6.07209 9.47404 -0.415722
RightFoot  -5.41185 -0.190572 2.9674
RightToes  5.23868e-010 0 -3.6325e-017
Spine  4.90026 -0.528743 0.193948
Spine1  -0.0341557 -0.42546 -0.689269
HEad  -4.77101 0.780015 -0.593201
LeftShoulder1  0.117631 2.14231 -0.227467
LeftArm  -20.1177 -0.158059 -10.4556
LeftForeArm  3.88631 1.3715 1.26224
LeftHand  -0.0503556 2.48801 1.49496
RightShoulder  0.0722172 -2.45838 -1.34219
RightArm  -4.42223 -0.719615 8.05153
RightForeArm  -0.468147 0.663367 -0.979897
RightHand  -0.267163 5.81175 -3.0894
LeftUpLeg  -1.28981 6.66112 3.81889
LeftLeg  4.81288 -7.37927 0.185878
LeftFoot  -0.681858 0.0561269 -0.554854
LeftToes  -4.9204e-010 1.02043e-011 -1.81609e-011
8
root  12.3304 39.9049 -1.90393 -23.5329 -87.5727 19.5662
RightUpLeg  1.08822 -6.79458 -4.21042
RightLeg  6.47008 9.20757 -0.411483
RightFoot  -5.76786 -0.180915 2.90902
RightToes  5.23868e-010 0 -3.6325e-017
Spine  5.14269 -0.571293 0.0273821
Spine1  -0.180754 -0.513754 -0.480373
HEad  -4.78342 1.03302 -0.933205
LeftShoulder1  0.107729 2.29343 -0.524492
LeftArm  -20.3105 -0.112472 -10.8357
LeftForeArm  3.48694 0.698747 1.27012
LeftHand  -0.0443409 3.48572 1.54634
RightShoulder  0.0719692 -2.55768 -1.04664
RightArm  -5.06682 -0.834558 8.17027
RightForeArm  -0.165467 1.33884 -1.16297
RightHand  -0.241809 5.607 -2.87091
LeftUpLeg  -1.33926 6.63162 3.78046
LeftLeg  5.06771 -7.49635 0.161604
LeftFoot  -0.808027 0.0571996 -0.559515
LeftToes  -4.9204e-010 1.02043e-011 -1.81609e-011
9
root  12.3325 39.8932 -1.93641 -22.6299 -87.3315 18.5254
RightUpLeg  1.08049 -6.58359 -4.14738
RightLeg  6.89533 8.79102 -0.485091
RightFoot  -6.08943 -0.167511 2.74803
RightToes  5.23868e-010 0 -3.6325e-017
Spine  5.41409 -0.668877 -0.292893
Spine1  -0.237223 -0.703892 -0.0122965
HEad  -4.80371 1.28382 -1.33027
LeftShoulder1  0.0793123 2.65001 -0.909251
LeftArm  -20.9382 0.33575 -12.0621
LeftForeArm  3.29088 -0.75786 1.45463
LeftHand  -0.0761407 3.13235 3.18765
RightShoulder  0.0663842 -2.65251 -0.769976
RightArm  -6.31957 -1.25575 8.9959
RightForeArm  -1.29975 2.69681 -1.43287
RightHand  -0.305809 5.55798 -3.55591
LeftUpLeg  -1.27788 6.61825 3.79243
LeftLeg  5.16148 -7.76044 0.132816
LeftFoot  -0.849484 0.0620222 -0.624443
LeftToes  -4.9204e-010 1.02043e-011 -1.81609e-011
